<?xml version="1.0" encoding="utf-8"?>
<!-- Generator: Adobe Illustrator 26.1.0, SVG Export Plug-In . SVG Version: 6.00 Build 0)  -->
<svg version="1.1" id="Capa_1" xmlns="http://www.w3.org/2000/svg" xmlns:xlink="http://www.w3.org/1999/xlink" x="0px" y="0px"
	 viewBox="0 0 363.3 96.2" style="enable-background:new 0 0 363.3 96.2;" xml:space="preserve">
<style type="text/css">
	.st0{fill:#070707;}
</style>
<path class="st0" d="M226.3,32.5c0,1.5-0.6,3-1.7,4c-1,1.1-2.5,1.7-4,1.7c-3.1,0-5.6-2.6-5.6-5.7c0-1.5,0.6-3,1.7-4
	c1-1.1,2.5-1.7,4-1.7C223.8,26.9,226.4,29.4,226.3,32.5L226.3,32.5z M225.8,42.5v31.8h-10.3V42.6L225.8,42.5z"/>
<path class="st0" d="M250.4,49.9c-1.8,0-4.3,0.9-7.5,2.8v21.7h-10.3V42.6h6.4l1.8,3.3c1.9-1.3,4-2.4,6.2-3.2c2-0.8,4.2-1.2,6.4-1.2
	c3.9,0,6.8,1.1,8.6,3.4s2.7,5.3,2.7,9.2v20.2h-10.3V54.9c0.1-1.3-0.3-2.6-1-3.6C252.6,50.3,251.5,49.8,250.4,49.9z"/>
<path class="st0" d="M285.7,41.6c2.9-0.1,5.7,0.7,8.2,2.2c2.2,1.5,3.9,3.6,5,6c1.1,2.6,1.7,5.5,1.7,8.4v3.1h-20.4
	c1,3.7,3.8,5.6,8.4,5.6c3.2,0,6.3-0.9,9-2.5l2.9,7.1c-1.7,1.2-3.5,2-5.5,2.6c-2.3,0.7-4.7,1-7.1,1c-5.8,0-10.4-1.5-13.7-4.4
	c-3.3-2.9-5-7-5-12.2c-0.1-3.1,0.7-6.2,2.1-9c1.3-2.5,3.4-4.5,5.9-5.9C279.8,42.2,282.7,41.5,285.7,41.6z M285.5,50
	c-1.4,0-2.7,0.5-3.6,1.5c-1,1.1-1.6,2.4-1.7,3.9h10.7c-0.2-1.4-0.8-2.8-1.7-3.9C288.2,50.5,286.8,49.9,285.5,50z"/>
<path class="st0" d="M321.1,52c-1.9,0.8-3.7,1.9-5.3,3.3v19h-10.3V42.6h5.2l2.9,4.5c1.6-1.3,3.4-2.3,5.3-3.2
	c1.7-0.9,3.5-1.3,5.4-1.4l2,8.2C324.5,50.8,322.7,51.2,321.1,52z"/>
<path class="st0" d="M78.2,50.7c0.1,4.1-0.8,8.3-2.6,12c-1.6,3.3-4.1,6-7.3,7.8c-3.4,1.9-7.2,2.8-11.1,2.8H38.8V28.7h18.6
	c4-0.1,7.9,0.9,11.4,2.8c3.1,1.8,5.5,4.5,7,7.8C77.4,42.8,78.2,46.7,78.2,50.7z M67.6,50.7c0-4.2-0.9-7.6-2.6-10
	c-1.8-2.5-4.6-3.8-7.7-3.7H49v28h7.8c3,0.1,5.9-1.2,7.9-3.5C66.6,59.1,67.6,55.5,67.6,50.7z"/>
<path class="st0" d="M99.2,73.9C96,74,92.9,73.3,90,72c-2.6-1.2-4.7-3.2-6.1-5.7c-1.5-2.8-2.3-5.9-2.2-9.1c-0.1-3.1,0.7-6.2,2.3-8.9
	c1.5-2.5,3.6-4.5,6.2-5.8c2.8-1.4,5.9-2.1,9.1-2c3.2-0.1,6.3,0.6,9.1,2c2.6,1.3,4.7,3.3,6.2,5.8c1.5,2.8,2.3,5.9,2.2,9.1
	c0.1,3.1-0.7,6.2-2.3,8.8c-1.5,2.5-3.7,4.5-6.3,5.7C105.4,73.3,102.3,74,99.2,73.9z M106.2,57.4c0.1-2.2-0.6-4.3-1.9-6
	c-1.2-1.5-3.1-2.4-5-2.3c-2-0.1-3.8,0.8-5.1,2.3c-1.3,1.7-2,3.8-1.9,6c-0.1,2.2,0.6,4.3,1.9,6c1.2,1.5,3.1,2.3,5,2.3
	c1.9,0.1,3.8-0.8,5.1-2.2C105.6,61.6,106.3,59.5,106.2,57.4L106.2,57.4z"/>
<path class="st0" d="M163,77.8c0.1,3.5-0.9,6.9-2.8,9.8c-2,2.9-4.8,5.1-8,6.4c-3.8,1.6-7.9,2.3-12,2.2c-3.1-0.1-6.2-0.5-9.2-1.3
	c-3.2-0.6-6.4-1.9-9.2-3.6l4.1-9.6c4.2,2.2,8.8,3.4,13.5,3.5c2.6,0.1,5.1-0.6,7.2-2c1.8-1.2,2.8-3.3,2.8-5.5v-2.4
	c-2.4,1.1-5.1,1.7-7.8,1.7c-6.6,0-11.8-1.9-15.7-5.8c-3.9-3.8-5.9-9.3-5.9-16.4c0-7.1,2-12.6,5.9-16.5c4-4,9.3-6,16.1-6
	c2.1,0,4.1,0.4,6,1.2c2.1,0.8,4,1.9,5.7,3.4l2.3-3.1h7V77.8z M149.2,63.8V45.7c-1.9-1.4-4.2-2.2-6.6-2.2c-2.5-0.1-4.8,1.1-6.2,3.1
	c-1.7,2.4-2.5,5.3-2.4,8.3c0,3.5,0.8,6.2,2.4,8.2c1.6,2,4,3.1,6.6,3C145.3,66.1,147.5,65.2,149.2,63.8z"/>
<path class="st0" d="M208.8,77.8c0.1,3.5-0.9,6.9-2.8,9.8c-2,2.9-4.8,5.1-8,6.4c-3.8,1.6-7.9,2.3-12,2.2c-3.1-0.1-6.2-0.5-9.3-1.3
	c-3.2-0.6-6.4-1.9-9.2-3.6l4.1-9.6c4.2,2.2,8.8,3.4,13.5,3.5c2.6,0.1,5.1-0.6,7.2-2c1.8-1.3,2.8-3.3,2.7-5.5v-2.4
	c-2.4,1.1-5.1,1.7-7.8,1.7c-6.6,0-11.8-1.9-15.7-5.8c-3.9-3.8-5.8-9.3-5.8-16.4c0-7.1,2-12.6,5.9-16.5c4-4,9.3-6,16.2-6
	c2.1,0,4.1,0.4,6,1.2c2.1,0.8,4,1.9,5.7,3.4l2.3-3.2h7L208.8,77.8z M195,63.8V45.7c-1.9-1.4-4.2-2.2-6.6-2.2
	c-2.5-0.1-4.8,1.1-6.2,3.1c-1.7,2.4-2.5,5.3-2.4,8.3c0,3.5,0.8,6.2,2.4,8.2c1.6,2,4,3.1,6.6,3C191,66.1,193.2,65.2,195,63.8z"/>
<path class="st0" d="M36.5,22.4c-0.8-0.8,0-9.8-7.2-14.8s0.7,15.6-0.4,22.3s-5.7,14.7-8.2,13.6S15,36.7,13,35.3s-7.6-2.1-10.8-5.9
	s-2.5-5.9-0.8-7.9s11.4-5.8,12.4-9.6S18.1,0,28,0C43.5,0,38.2,24,36.5,22.4z"/>
<path class="st0" d="M326.8,33.1c0.9-0.8,0-9.8,7.2-14.8s-0.7,15.7,0.4,22.3s5.7,14.7,8.2,13.6s5.8-6.9,7.9-8.2s7.6-2.1,10.7-5.9
	s2.5-6,0.8-7.8s-11.5-5.8-12.4-9.6s-4.3-12-14.2-12C319.8,10.7,325.1,34.7,326.8,33.1z"/>
</svg>
