<?xml version="1.0" encoding="utf-8"?>
<!-- Generator: Adobe Illustrator 26.1.0, SVG Export Plug-In . SVG Version: 6.00 Build 0)  -->
<svg version="1.1" id="Capa_1" xmlns="http://www.w3.org/2000/svg" xmlns:xlink="http://www.w3.org/1999/xlink" x="0px" y="0px"
	 viewBox="0 0 141.41 72.29" style="enable-background:new 0 0 141.41 72.29;" xml:space="preserve">
<style type="text/css">
	.st0{fill:#164D47;}
	.st1{fill:#A1C386;}
</style>
<path class="st0" d="M23.49,37.47c0,2.74-0.51,5.11-1.52,7.13c-1.02,2.02-2.46,3.58-4.34,4.67c-1.88,1.09-4.08,1.64-6.61,1.64H0
	V24.34h11.1c2.66,0,4.92,0.56,6.78,1.68c1.86,1.12,3.26,2.66,4.2,4.63C23.02,32.62,23.49,34.89,23.49,37.47z M17.16,37.47
	c0-2.53-0.52-4.52-1.56-5.98c-1.04-1.46-2.57-2.19-4.57-2.19H6.1v16.69h4.65c1.98,0,3.54-0.7,4.69-2.11
	C16.59,42.47,17.16,40.34,17.16,37.47z"/>
<path class="st0" d="M36,51.35c-2.06,0-3.87-0.38-5.43-1.15c-1.56-0.77-2.78-1.9-3.66-3.4c-0.87-1.5-1.31-3.3-1.31-5.41
	c0-2.03,0.45-3.8,1.35-5.32c0.9-1.51,2.14-2.67,3.71-3.48c1.58-0.81,3.38-1.21,5.41-1.21c2.06,0,3.88,0.4,5.45,1.19
	c1.58,0.8,2.8,1.95,3.68,3.46c0.87,1.51,1.31,3.32,1.31,5.43c0,2.03-0.45,3.79-1.35,5.28c-0.9,1.49-2.14,2.63-3.73,3.42
	C39.85,50.95,38.04,51.35,36,51.35z M40.19,41.46c0-1.46-0.37-2.66-1.12-3.6c-0.74-0.94-1.73-1.41-2.95-1.41
	c-1.28,0-2.29,0.45-3.05,1.35c-0.76,0.9-1.13,2.09-1.13,3.58c0,1.49,0.37,2.68,1.11,3.58c0.74,0.9,1.74,1.35,2.99,1.35
	c1.25,0,2.25-0.44,3.01-1.33C39.81,44.09,40.19,42.92,40.19,41.46z"/>
<path class="st0" d="M84.37,56.76c0,3.08-0.78,5.77-2.35,8.08c-1.57,2.31-3.78,4.08-6.64,5.31c-2.86,1.23-6.17,1.84-9.92,1.84
	c-1.93,0-4.48-0.36-7.65-1.08c-3.18-0.72-5.7-1.71-7.58-2.96l3.39-7.94c3.9,1.92,7.63,2.89,11.19,2.89c2.45,0,4.44-0.57,5.95-1.7
	c1.52-1.13,2.27-2.63,2.27-4.51v-1.95c-2.16,0.96-4.31,1.44-6.42,1.44c-5.44,0-9.77-1.59-12.99-4.76c-3.22-3.18-4.83-7.67-4.83-13.5
	c0-5.82,1.63-10.38,4.91-13.68c3.27-3.3,7.72-4.94,13.35-4.94c1.64,0,3.3,0.33,4.98,0.98c1.68,0.65,3.25,1.58,4.69,2.78l1.88-2.6
	h5.77V56.76z M73.03,45.13V30.19c-1.73-1.2-3.56-1.8-5.49-1.8c-2.12,0-3.82,0.86-5.12,2.6c-1.3,1.73-1.95,4.02-1.95,6.86
	c0,2.89,0.65,5.16,1.95,6.82c1.3,1.66,3.1,2.49,5.41,2.49C69.42,47.16,71.16,46.48,73.03,45.13z"/>
<path class="st0" d="M122.22,56.76c0,3.08-0.78,5.77-2.35,8.08c-1.57,2.31-3.78,4.08-6.64,5.31c-2.86,1.23-6.17,1.84-9.92,1.84
	c-1.93,0-4.48-0.36-7.65-1.08c-3.18-0.72-5.7-1.71-7.58-2.96l3.39-7.94c3.9,1.92,7.63,2.89,11.19,2.89c2.45,0,4.44-0.57,5.95-1.7
	c1.52-1.13,2.27-2.63,2.27-4.51v-1.95c-2.16,0.96-4.31,1.44-6.42,1.44c-5.44,0-9.77-1.59-12.99-4.76c-3.22-3.18-4.83-7.67-4.83-13.5
	c0-5.82,1.63-10.38,4.91-13.68c3.27-3.3,7.72-4.94,13.35-4.94c1.64,0,3.3,0.33,4.98,0.98c1.68,0.65,3.25,1.58,4.69,2.78l1.88-2.6
	h5.77V56.76z M110.88,45.13V30.19c-1.73-1.2-3.56-1.8-5.49-1.8c-2.12,0-3.82,0.86-5.12,2.6c-1.3,1.73-1.95,4.02-1.95,6.86
	c0,2.89,0.65,5.16,1.95,6.82c1.3,1.66,3.1,2.49,5.41,2.49C107.27,47.16,109.01,46.48,110.88,45.13z"/>
<path class="st0" d="M4.91,54.6c0,0.64-0.23,1.19-0.7,1.65c-0.46,0.46-1.02,0.7-1.68,0.7c-0.64,0-1.19-0.23-1.65-0.7
	c-0.46-0.46-0.7-1.01-0.7-1.65c0-0.65,0.23-1.21,0.7-1.68s1.01-0.7,1.65-0.7c0.65,0,1.21,0.23,1.68,0.7
	C4.68,53.39,4.91,53.95,4.91,54.6z M4.69,58.77v13.22H0.41V58.77H4.69z"/>
<path class="st0" d="M14.91,61.82c-0.76,0-1.8,0.38-3.11,1.14v9.02H7.53V58.77h2.64l0.74,1.39c0.8-0.55,1.67-0.99,2.6-1.32
	c0.94-0.34,1.82-0.5,2.66-0.5c1.63,0,2.82,0.47,3.56,1.4c0.74,0.94,1.1,2.21,1.1,3.83v8.42h-4.28v-8.09c0-0.64-0.14-1.14-0.41-1.51
	C15.86,62.01,15.46,61.82,14.91,61.82z"/>
<path class="st0" d="M29.62,58.36c1.34,0,2.48,0.31,3.41,0.93c0.93,0.62,1.62,1.44,2.08,2.48c0.46,1.04,0.7,2.2,0.7,3.49v1.28h-8.47
	c0.4,1.54,1.56,2.32,3.49,2.32c1.25,0,2.5-0.34,3.73-1.04l1.2,2.97c-0.62,0.45-1.38,0.82-2.28,1.09c-0.9,0.27-1.88,0.41-2.96,0.41
	c-2.42,0-4.32-0.61-5.71-1.82c-1.39-1.22-2.08-2.91-2.08-5.07c0-1.42,0.29-2.66,0.87-3.72c0.58-1.06,1.39-1.88,2.44-2.45
	C27.09,58.65,28.28,58.36,29.62,58.36z M29.52,61.88c-0.6,0-1.1,0.21-1.51,0.61c-0.41,0.41-0.65,0.95-0.72,1.62h4.47
	c-0.11-0.67-0.35-1.21-0.72-1.62C30.66,62.08,30.15,61.88,29.52,61.88z"/>
<path class="st0" d="M44.32,62.71c-0.83,0.35-1.57,0.81-2.22,1.38v7.9h-4.28V58.8h2.18l1.2,1.88c0.64-0.49,1.37-0.93,2.21-1.32
	c0.83-0.39,1.59-0.59,2.26-0.59l0.84,3.41C45.88,62.18,45.15,62.35,44.32,62.71z"/>
<path class="st1" d="M57.43,13.37c-0.51-0.47-0.03-5.84-4.28-8.82s0.43,9.34-0.22,13.32c-0.65,3.98-3.39,8.77-4.9,8.12
	s-3.44-4.09-4.68-4.9s-4.52-1.24-6.4-3.5c-1.88-2.26-1.51-3.55-0.48-4.68s6.83-3.44,7.37-5.76S46.43,0,52.35,0
	C61.6-0.01,58.45,14.31,57.43,13.37z"/>
<path class="st1" d="M119.6,13.37c0.51-0.47,0.03-5.84,4.28-8.82s-0.43,9.34,0.22,13.32s3.39,8.77,4.9,8.12
	c1.51-0.65,3.44-4.09,4.68-4.9c1.24-0.81,4.52-1.24,6.4-3.5s1.51-3.55,0.48-4.68c-1.02-1.13-6.83-3.44-7.37-5.76
	c-0.54-2.31-2.58-7.15-8.5-7.16C115.43-0.01,118.59,14.31,119.6,13.37z"/>
</svg>
